<?xml version="1.0" standalone="no"?>
<!DOCTYPE svg PUBLIC "-//W3C//DTD SVG 20010904//EN"
 "http://www.w3.org/TR/2001/REC-SVG-20010904/DTD/svg10.dtd">
<svg version="1.0" xmlns="http://www.w3.org/2000/svg"
 width="134.000000pt" height="134.000000pt" viewBox="0 0 134.000000 134.000000"
 preserveAspectRatio="xMidYMid meet">
<metadata>
Created by potrace 1.11, written by Peter Selinger 2001-2013
</metadata>
<g transform="translate(0.000000,134.000000) scale(0.100000,-0.100000)"
fill="#000000" stroke="none">
<path d="M795 1322 c-47 -22 -105 -83 -136 -144 -26 -50 -35 -161 -16 -198 22
-44 43 -36 73 25 20 43 38 64 72 86 25 16 51 29 57 29 19 0 93 57 106 81 22
43 21 75 -5 106 -31 36 -91 42 -151 15z"/>
<path d="M822 1030 c-39 -37 -23 -93 30 -105 21 -5 33 -1 52 19 32 31 33 50 1
81 -29 30 -54 32 -83 5z"/>
<path d="M103 865 c-47 -20 -60 -45 -54 -106 1 -21 40 -47 79 -54 17 -3 41 -9
53 -13 23 -9 23 -9 3 -20 -14 -7 -33 -8 -60 -2 -57 14 -61 13 -72 -20 -12 -34
-11 -36 52 -50 98 -22 179 15 179 83 0 49 -15 64 -84 83 -34 10 -58 22 -56 28
4 12 38 14 78 3 21 -5 28 -2 37 19 18 38 15 42 -25 53 -49 12 -95 11 -130 -4z"/>
<path d="M357 735 l45 -136 50 3 50 3 22 70 22 70 23 -73 23 -73 50 3 50 3 42
130 42 130 -34 3 c-51 5 -57 -1 -78 -72 -10 -36 -21 -66 -24 -66 -3 0 -14 30
-25 68 l-20 67 -46 3 -47 3 -17 -66 c-10 -36 -21 -68 -25 -70 -3 -2 -16 27
-29 66 l-22 69 -48 0 -48 0 44 -135z"/>
<path d="M816 738 l0 -133 47 -3 47 -3 0 135 0 136 -47 0 -48 0 1 -132z"/>
<path d="M970 735 l0 -135 43 0 44 0 0 38 c1 78 2 78 32 30 38 -60 73 -56 101
12 18 45 27 36 25 -25 l-1 -55 43 0 43 0 0 135 0 135 -39 0 c-37 0 -40 -2 -81
-71 l-42 -71 -45 71 c-43 68 -46 71 -84 71 l-39 0 0 -135z"/>
<path d="M883 478 c-64 -17 -94 -97 -57 -153 29 -44 115 -55 145 -19 8 9 8 14
1 14 -6 0 -14 -4 -17 -10 -10 -16 -82 -12 -100 7 -40 39 -39 100 1 132 24 19
59 21 103 7 15 -5 21 -5 17 2 -11 18 -60 29 -93 20z"/>
<path d="M169 451 c-75 -75 12 -202 110 -161 17 7 31 17 31 22 0 5 -9 4 -19
-2 -11 -5 -35 -10 -54 -10 -85 0 -110 123 -32 156 32 13 49 13 90 -1 20 -7 20
-6 1 9 -33 27 -93 21 -127 -13z"/>
<path d="M397 469 c-22 -13 -47 -61 -47 -93 0 -14 13 -40 29 -58 24 -27 36
-32 74 -32 76 0 121 62 96 132 -17 51 -103 80 -152 51z m121 -35 c69 -78 -39
-178 -122 -113 -20 16 -26 29 -26 58 0 84 91 118 148 55z"/>
<path d="M630 385 c-23 -53 -40 -98 -36 -102 3 -4 12 8 18 25 12 31 14 32 70
32 53 0 59 -2 68 -24 8 -21 30 -45 30 -33 0 14 -92 197 -98 197 -5 0 -28 -43
-52 -95z m100 -30 c0 -8 -81 -2 -86 6 -2 5 5 29 16 55 l22 46 24 -52 c13 -28
24 -54 24 -55z"/>
<path d="M1042 385 c0 -52 4 -98 9 -101 5 -3 9 17 9 44 l0 50 63 -2 62 -1 6
-50 c3 -28 7 -45 9 -40 6 24 5 187 -2 191 -4 3 -8 -15 -8 -40 l0 -46 -65 0
c-69 0 -68 -1 -65 58 1 17 -3 32 -8 32 -5 0 -10 -42 -10 -95z"/>
<path d="M190 162 c-17 -8 -43 -30 -57 -49 -14 -18 -39 -37 -57 -41 -35 -9
-46 -41 -22 -62 28 -22 80 -4 127 45 24 25 52 45 63 45 10 0 40 -20 67 -45 78
-73 137 -73 209 0 24 25 53 45 64 45 11 0 42 -21 69 -47 45 -45 51 -48 102
-48 51 0 57 3 102 48 27 26 57 47 68 47 11 0 40 -20 65 -45 77 -76 140 -73
220 11 23 24 46 41 51 38 14 -8 39 15 39 37 0 18 -24 36 -45 34 -37 -4 -67
-20 -94 -50 -17 -20 -42 -40 -56 -45 -23 -9 -30 -5 -70 35 -51 52 -84 67 -127
60 -42 -8 -57 -17 -102 -65 -46 -48 -64 -47 -114 11 -33 39 -82 61 -117 54
-11 -2 -25 -4 -32 -4 -7 -1 -36 -24 -64 -51 -59 -58 -74 -58 -122 -4 -16 19
-39 40 -49 45 -32 17 -84 17 -118 1z"/>
</g>
</svg>
